<?xml version="1.0" encoding="UTF-8"?>
<svg width="60px" height="60px" viewBox="0 0 60 60" version="1.1" xmlns="http://www.w3.org/2000/svg" xmlns:xlink="http://www.w3.org/1999/xlink">
    <!-- Generator: Sketch 42 (36781) - http://www.bohemiancoding.com/sketch -->
    <title>remove</title>
    <desc>Created with Sketch.</desc>
    <defs></defs>
    <g id="Page-1" stroke="none" stroke-width="1" fill="none" fill-rule="evenodd">
        <g id="remove" fill="#FB1515">
            <g id="Global-Element-/-Bottom-Bar-Icons-/-Delete" transform="translate(16.000000, 12.000000)">
                <path d="M20.6323158,2.96 C20.6323158,1.32534 19.3126316,0 17.6849474,0 L10.3165263,0 C8.68884211,0 7.36915789,1.32534 7.36915789,2.96 L7.36915789,4.44 L0,4.44 L0,5.92 L1.65789474,5.92 L2.94663158,34.78 C2.94663158,34.78 3.41010526,37 5.15715789,37 L13.2624211,37 L14.7361053,37 L22.8413684,37 C24.5891579,37 25.0526316,34.78 25.0526316,34.78 L26.2809474,5.92 L28,5.92 L28,4.44 L20.6323158,4.44 L20.6323158,2.96 Z M8.84284211,2.96 C8.84284211,2.1423 9.61308772,1.48 10.5621404,1.48 L17.4393333,1.48 C18.388386,1.48 19.1586316,2.14304 19.1586316,2.96 L19.1586316,4.44 L8.84284211,4.44 L8.84284211,2.96 L8.84284211,2.96 Z M22.8421053,35.51926 L14.7368421,35.51926 L13.2631579,35.51926 L5.15789474,35.51926 C5.15789474,35.51926 4.54484211,35.1833 4.42105263,34.03926 C4.298,32.89522 3.13157895,5.91926 3.13157895,5.91926 L24.7453684,5.91926 C24.7461053,5.91926 23.7027368,32.89522 23.5796842,34.03926 C23.4558947,35.1833 22.8421053,35.51926 22.8421053,35.51926 Z M19.8954737,8.88 L18.4217895,8.88 L17.6849474,32.56 L19.1586316,32.56 L19.8954737,8.88 Z M10.3165263,32.56 L9.57968421,8.88 L8.10526316,8.88 L8.84210526,32.56 L10.3165263,32.56 Z M13.2631579,8.88 L14.7368421,8.88 L14.7368421,32.56 L13.2631579,32.56 L13.2631579,8.88 Z" id="Global-Elements-/-Bottom-Bar-Icons-/-Delete"></path>
            </g>
        </g>
    </g>
</svg>